<svg xmlns="http://www.w3.org/2000/svg" version="1.1" xmlns:xlink="http://www.w3.org/1999/xlink" xmlns:svgjs="http://svgjs.dev/svgjs" width="1000" height="1000" viewBox="0 0 1000 1000"><rect width="1000" height="1000" fill="#000000"></rect><g transform="matrix(0.7,0,0,0.7,149.57577483822604,282.12656948074147)"><svg viewBox="0 0 396 247" data-background-color="#ffffff" preserveAspectRatio="xMidYMid meet" height="623" width="1000" xmlns="http://www.w3.org/2000/svg" xmlns:xlink="http://www.w3.org/1999/xlink"><g id="tight-bounds" transform="matrix(1,0,0,1,0.239990234375,-0.10000610351559658)"><svg viewBox="0 0 395.52 247.2" height="247.2" width="395.52"><rect width="395.52001953125" height="247.20001220703125" fill="#ffffff" mask="url(#9d99edfd-8c67-4d79-95ab-bbb609ada59c)" data-fill-palette-color="tertiary"></rect><g><svg></svg></g><g><svg viewBox="0 0 395.52 247.2" height="247.2" width="395.52"><g transform="matrix(1,0,0,1,127.63387398708934,47.215199999999996)"><svg viewBox="0 0 140.2522520258213 152.7696" height="152.7696" width="140.2522520258213"><g><svg viewBox="0 0 245.65351679999992 267.57780326564784" height="152.7696" width="140.2522520258213"><g></g><g></g><g transform="matrix(1,0,0,1,0.6110783999999825,182.70123411356172)"><svg viewBox="0 0 244.43135999999996 84.87656915208612" height="84.87656915208612" width="244.43135999999996"><g id="textblocktransform"><svg viewBox="0 0 244.43135999999996 84.87656915208612" height="84.87656915208612" width="244.43135999999996" id="textblock"><g><svg viewBox="0 0 244.43135999999996 84.87656915208612" height="84.87656915208612" width="244.43135999999996"><g transform="matrix(1,0,0,1,0,0)"><svg width="244.43135999999996" viewBox="-0.39000001549720764 -36.90999984741211 108.83000183105469 37.790000915527344" height="84.87656915208612" data-palette-color="url(#ff858294-1235-4c09-838b-ef5beaf325bb)"></svg></g></svg></g></svg></g></svg></g><g transform="matrix(1,0,0,1,77.44463576991757,0)"><svg viewBox="0 0 90.76424526016478 117.29941856818301" height="117.29941856818301" width="90.76424526016478"><g><svg xmlns="http://www.w3.org/2000/svg" xmlns:xlink="http://www.w3.org/1999/xlink" version="1.1" x="0" y="0" viewBox="12.982999801635742 1 75.68599700927734 97.81300354003906" enable-background="new 0 0 100 100" xml:space="preserve" height="117.29941856818301" width="90.76424526016478" class="icon-icon-0" data-fill-palette-color="accent" id="icon-0"></svg></g></svg></g><g></g></svg></g></svg></g><g><path d="M144.887 35.775A70.126 70.126 0 0 1 250.633 35.775L246.263 35.775A65.756 65.756 0 0 0 149.257 35.775L144.887 35.775M144.887 211.425A70.126 70.126 0 0 0 250.633 211.425L246.263 211.425A65.756 65.756 0 0 1 149.257 211.425L144.887 211.425" fill="#ffffff" stroke="transparent" data-fill-palette-color="tertiary"></path></g></svg></g><defs></defs><mask id="b59b5769-f208-4214-b90b-f34cbee9290d"><g id="SvgjsG2218"><svg viewBox="0 0 395.52 247.2" height="247.2" width="395.52"><g><svg></svg></g><g><svg viewBox="0 0 395.52 247.2" height="247.2" width="395.52"><g transform="matrix(1,0,0,1,127.63387398708934,47.215199999999996)"><svg viewBox="0 0 140.2522520258213 152.7696" height="152.7696" width="140.2522520258213"><g><svg viewBox="0 0 245.65351679999992 267.57780326564784" height="152.7696" width="140.2522520258213"><g><rect width="245.65351679999992" height="7.6542565987544915" x="0" y="137.3367395073309" fill="white" opacity="1" stroke-width="0" stroke="transparent" fill-opacity="1" class="rect-o-0" rx="1%" id="SvgjsRect2217" data-palette-color="url(#ff858294-1235-4c09-838b-ef5beaf325bb)"></rect></g><g><rect width="245.65351679999992" height="7.6542565987544915" x="0" y="155.00965657565933" fill="white" opacity="1" stroke-width="0" stroke="transparent" fill-opacity="1" class="rect-o-1" rx="1%" id="SvgjsRect2216" data-palette-color="url(#ff858294-1235-4c09-838b-ef5beaf325bb)"></rect></g><g transform="matrix(1,0,0,1,0.6110783999999825,182.70123411356172)"><svg viewBox="0 0 244.43135999999996 84.87656915208612" height="84.87656915208612" width="244.43135999999996"><g id="SvgjsG2215"><svg viewBox="0 0 244.43135999999996 84.87656915208612" height="84.87656915208612" width="244.43135999999996" id="SvgjsSvg2214"><g><svg viewBox="0 0 244.43135999999996 84.87656915208612" height="84.87656915208612" width="244.43135999999996"><g transform="matrix(1,0,0,1,0,0)"><svg width="244.43135999999996" viewBox="-0.39000001549720764 -36.90999984741211 108.83000183105469 37.790000915527344" height="84.87656915208612" data-palette-color="url(#ff858294-1235-4c09-838b-ef5beaf325bb)"><path d="M-0.39-29.25L-0.39-29.25Q-0.39-29.69-0.34-30.55-0.29-31.42-0.29-31.74L-0.29-31.74Q-0.29-31.86-0.34-32.62-0.39-33.37-0.39-33.94L-0.39-33.94Q-0.39-36.52 0.1-36.52L0.1-36.52Q0.29-36.52 0.44-36.47L0.44-36.47Q5.54-36.47 15.56-36.6 25.59-36.72 30.57-36.72L30.57-36.72Q31.81-36.72 32.14-36.5 32.47-36.28 32.47-35.64L32.47-35.64 32.47-34.96Q32.47-33.69 32.5-31.21 32.52-28.74 32.52-27.44L32.52-27.44Q32.52-26.17 31.84-26.17L31.84-26.17Q30.47-26.17 27.76-26.22 25.05-26.27 23.68-26.27L23.68-26.27 23.68-0.1Q23.51 0.63 22.85 0.68L22.85 0.68Q22 0.68 20.36 0.66 18.73 0.63 17.87 0.63L17.87 0.63Q17.82 0.63 17.77 0.68L17.77 0.68Q16.7 0.68 14.76 0.66 12.82 0.63 11.87 0.63L11.87 0.63 10.4 0.63Q9.91 0.68 8.98 0.68L8.98 0.68 8.01-0.49Q8.01-4.2 8.25-11.52 8.5-18.85 8.5-22.56L8.5-22.56Q8.5-22.73 8.48-23.12 8.47-23.51 8.47-23.75 8.47-24 8.44-24.37 8.4-24.73 8.31-24.96 8.23-25.2 8.11-25.43 7.98-25.66 7.78-25.77 7.57-25.88 7.28-25.88L7.28-25.88 0.29-25.88Q-0.39-26.07-0.39-29.25ZM49.95 0.63L34.18 0.63Q34.27-6.47 34.52-9.77L34.52-9.77Q34.52-20.02 34.81-30.57L34.81-30.57Q34.71-32.62 34.71-33.59L34.71-33.59 34.71-34.33Q34.62-35.4 34.62-36.08L34.62-36.08Q34.62-36.55 35.06-36.91L35.06-36.91Q39.06-36.62 47.26-36.62L47.26-36.62Q49.22-36.62 49.95-36.72L49.95-36.72 49.95 0.63ZM62.28 0.88L51.87-36.01Q51.87-36.72 52.7-36.72L52.7-36.72Q55.07-36.72 59.63-36.77 64.18-36.82 66.43-36.82L66.43-36.82Q67.11-36.82 67.6-36.13L67.6-36.13 71.8-11.82Q72.19-14.16 73.19-18.42 74.19-22.68 74.48-24.07L74.48-24.07 76.92-36.28Q77.12-36.87 86.93-36.87L86.93-36.87 90.84-36.87Q91.3-36.69 91.43-36.04L91.43-36.04 85.96-16.26Q85.79-15.6 85.31-13.34 84.83-11.08 84.36-9.02 83.88-6.96 83.27-4.71 82.66-2.47 81.97-1 81.27 0.46 80.63 0.68L80.63 0.68Q79.76 0.68 78.02 0.61 76.29 0.54 75.41 0.54L75.41 0.54 73.65 0.54Q71.99 0.68 70.03 0.73 68.06 0.78 65.84 0.81 63.62 0.83 62.28 0.88L62.28 0.88ZM108.44 0.63L92.67 0.63Q92.77-6.47 93.01-9.77L93.01-9.77Q93.01-20.02 93.3-30.57L93.3-30.57Q93.21-32.62 93.21-33.59L93.21-33.59 93.21-34.33Q93.11-35.4 93.11-36.08L93.11-36.08Q93.11-36.55 93.55-36.91L93.55-36.91Q97.55-36.62 105.75-36.62L105.75-36.62Q107.71-36.62 108.44-36.72L108.44-36.72 108.44 0.63Z" opacity="1" transform="matrix(1,0,0,1,0,0)" fill="white" class="wordmark-text-0" id="SvgjsPath2213"></path></svg></g></svg></g></svg></g></svg></g><g transform="matrix(1,0,0,1,77.44463576991757,0)"><svg viewBox="0 0 90.76424526016478 117.29941856818301" height="117.29941856818301" width="90.76424526016478"><g><svg xmlns="http://www.w3.org/2000/svg" xmlns:xlink="http://www.w3.org/1999/xlink" version="1.1" x="0" y="0" viewBox="12.982999801635742 1 75.68599700927734 97.81300354003906" enable-background="new 0 0 100 100" xml:space="preserve" height="117.29941856818301" width="90.76424526016478" class="icon-icon-0" data-fill-palette-color="accent" id="SvgjsSvg2212"></svg></g></svg></g><g></g></svg></g></svg></g><g></g></svg></g><defs><mask></mask></defs></svg></g></mask><linearGradient x1="0.054" x2="0.941" y1="0.5" y2="0.5" id="ff858294-1235-4c09-838b-ef5beaf325bb"><stop stop-color="#0f3054" offset="0"></stop><stop stop-color="#3b8dcb" offset="0.498"></stop><stop stop-color="#0f3054" offset="1"></stop></linearGradient><rect width="395.52001953125" height="247.20001220703125" fill="#ffffff" mask="url(#b59b5769-f208-4214-b90b-f34cbee9290d)" data-fill-palette-color="primary"></rect><mask id="914adb65-69b8-48c7-a5d7-3a74a4559623"><g id="SvgjsG2229"><svg viewBox="0 0 395.52 247.2" height="247.2" width="395.52"><g><svg></svg></g><g><svg viewBox="0 0 395.52 247.2" height="247.2" width="395.52"><g transform="matrix(1,0,0,1,127.63387398708934,47.215199999999996)"><svg viewBox="0 0 140.2522520258213 152.7696" height="152.7696" width="140.2522520258213"><g><svg viewBox="0 0 245.65351679999992 267.57780326564784" height="152.7696" width="140.2522520258213"><g></g><g></g><g transform="matrix(1,0,0,1,0.6110783999999825,182.70123411356172)"><svg viewBox="0 0 244.43135999999996 84.87656915208612" height="84.87656915208612" width="244.43135999999996"><g id="SvgjsG2228"><svg viewBox="0 0 244.43135999999996 84.87656915208612" height="84.87656915208612" width="244.43135999999996" id="SvgjsSvg2227"><g><svg viewBox="0 0 244.43135999999996 84.87656915208612" height="84.87656915208612" width="244.43135999999996"><g transform="matrix(1,0,0,1,0,0)"><svg width="244.43135999999996" viewBox="-0.39000001549720764 -36.90999984741211 108.83000183105469 37.790000915527344" height="84.87656915208612" data-palette-color="url(#ff858294-1235-4c09-838b-ef5beaf325bb)"></svg></g></svg></g></svg></g></svg></g><g transform="matrix(1,0,0,1,77.44463576991757,0)"><svg viewBox="0 0 90.76424526016478 117.29941856818301" height="117.29941856818301" width="90.76424526016478"><g><svg xmlns="http://www.w3.org/2000/svg" xmlns:xlink="http://www.w3.org/1999/xlink" version="1.1" x="0" y="0" viewBox="12.982999801635742 1 75.68599700927734 97.81300354003906" enable-background="new 0 0 100 100" xml:space="preserve" height="117.29941856818301" width="90.76424526016478" class="icon-icon-0" data-fill-palette-color="accent" id="SvgjsSvg2226"><g fill="white"><polygon fill-rule="evenodd" clip-rule="evenodd" points="12.983,10.59 30.001,98.813 24.129,39.764 53.15,37.872 53.096,27.989    64.549,1 53.622,18.977  " fill="white"></polygon><polygon fill-rule="evenodd" clip-rule="evenodd" points="59.389,54.548 64.549,1.007 55.809,40.723 36.197,41.768 37.767,62.23    30.001,98.813 42.058,58.914  " fill="white"></polygon><polygon fill-rule="evenodd" clip-rule="evenodd" points="62.8,67.182 63.349,56.729 47.37,60.484 47.338,72.281 30.001,98.813    51.681,71.197  " fill="white"></polygon><polygon fill-rule="evenodd" clip-rule="evenodd" points="65.711,62.394 80.552,57.663 82.061,45.131 66.162,47.226  " fill="white"></polygon><polygon fill-rule="evenodd" clip-rule="evenodd" points="72.07,44.502 83.058,43.085 84.639,32.807 76.56,32.434 64.549,1    72.979,31.967  " fill="white"></polygon><polygon fill-rule="evenodd" clip-rule="evenodd" points="87.413,31.294 88.669,21.788 79.125,19.094 64.549,1 79.032,23.437    78.61,30.437  " fill="white"></polygon></g></svg></g></svg></g><g></g></svg></g></svg></g><g></g></svg></g><defs><mask></mask></defs><mask><g id="SvgjsG2225"><svg viewBox="0 0 395.52 247.2" height="247.2" width="395.52"><g><svg></svg></g><g><svg viewBox="0 0 395.52 247.2" height="247.2" width="395.52"><g transform="matrix(1,0,0,1,127.63387398708934,47.215199999999996)"><svg viewBox="0 0 140.2522520258213 152.7696" height="152.7696" width="140.2522520258213"><g><svg viewBox="0 0 245.65351679999992 267.57780326564784" height="152.7696" width="140.2522520258213"><g></g><g></g><g transform="matrix(1,0,0,1,0.6110783999999825,182.70123411356172)"><svg viewBox="0 0 244.43135999999996 84.87656915208612" height="84.87656915208612" width="244.43135999999996"><g id="SvgjsG2222"><svg viewBox="0 0 244.43135999999996 84.87656915208612" height="84.87656915208612" width="244.43135999999996" id="SvgjsSvg2221"><g><svg viewBox="0 0 244.43135999999996 84.87656915208612" height="84.87656915208612" width="244.43135999999996"><g transform="matrix(1,0,0,1,0,0)"><svg width="244.43135999999996" viewBox="-0.39000001549720764 -36.90999984741211 108.83000183105469 37.790000915527344" height="84.87656915208612" data-palette-color="url(#ff858294-1235-4c09-838b-ef5beaf325bb)"></svg></g></svg></g></svg></g></svg></g><g transform="matrix(1,0,0,1,77.44463576991757,0)"><svg viewBox="0 0 90.76424526016478 117.29941856818301" height="117.29941856818301" width="90.76424526016478"><g><svg xmlns="http://www.w3.org/2000/svg" xmlns:xlink="http://www.w3.org/1999/xlink" version="1.1" x="0" y="0" viewBox="12.982999801635742 1 75.68599700927734 97.81300354003906" enable-background="new 0 0 100 100" xml:space="preserve" height="117.29941856818301" width="90.76424526016478" class="icon-icon-0" data-fill-palette-color="accent" id="SvgjsSvg2219"></svg></g></svg></g><g></g></svg></g></svg></g><g></g></svg></g><defs><mask></mask></defs></svg></g></mask></svg></g></mask><linearGradient x1="0.054" x2="0.941" y1="0.5" y2="0.5" id="677add22-af3c-4871-b473-d1d5dd037cfc"><stop stop-color="#0f3054" offset="0"></stop><stop stop-color="#3b8dcb" offset="0.498"></stop><stop stop-color="#0f3054" offset="1"></stop></linearGradient><rect width="395.52001953125" height="247.20001220703125" fill="#ffffff" mask="url(#914adb65-69b8-48c7-a5d7-3a74a4559623)" data-fill-palette-color="accent"></rect><mask id="9d99edfd-8c67-4d79-95ab-bbb609ada59c"><g id="SvgjsG2248"><svg viewBox="0 0 395.52 247.2" height="247.2" width="395.52"><g><svg></svg></g><g><svg viewBox="0 0 395.52 247.2" height="247.2" width="395.52"><g transform="matrix(1,0,0,1,127.63387398708934,47.215199999999996)"><svg viewBox="0 0 140.2522520258213 152.7696" height="152.7696" width="140.2522520258213"><g><svg viewBox="0 0 245.65351679999992 267.57780326564784" height="152.7696" width="140.2522520258213"><g></g><g></g><g transform="matrix(1,0,0,1,0.6110783999999825,182.70123411356172)"><svg viewBox="0 0 244.43135999999996 84.87656915208612" height="84.87656915208612" width="244.43135999999996"><g id="SvgjsG2247"><svg viewBox="0 0 244.43135999999996 84.87656915208612" height="84.87656915208612" width="244.43135999999996" id="SvgjsSvg2246"><g><svg viewBox="0 0 244.43135999999996 84.87656915208612" height="84.87656915208612" width="244.43135999999996"><g transform="matrix(1,0,0,1,0,0)"><svg width="244.43135999999996" viewBox="-0.39000001549720764 -36.90999984741211 108.83000183105469 37.790000915527344" height="84.87656915208612" data-palette-color="url(#ff858294-1235-4c09-838b-ef5beaf325bb)"></svg></g></svg></g></svg></g></svg></g><g transform="matrix(1,0,0,1,77.44463576991757,0)"><svg viewBox="0 0 90.76424526016478 117.29941856818301" height="117.29941856818301" width="90.76424526016478"><g><svg xmlns="http://www.w3.org/2000/svg" xmlns:xlink="http://www.w3.org/1999/xlink" version="1.1" x="0" y="0" viewBox="12.982999801635742 1 75.68599700927734 97.81300354003906" enable-background="new 0 0 100 100" xml:space="preserve" height="117.29941856818301" width="90.76424526016478" class="icon-icon-0" data-fill-palette-color="accent" id="SvgjsSvg2245"></svg></g></svg></g><g></g></svg></g></svg></g><g><path d="M144.887 35.775A70.126 70.126 0 0 1 250.633 35.775L246.263 35.775A65.756 65.756 0 0 0 149.257 35.775L144.887 35.775M144.887 211.425A70.126 70.126 0 0 0 250.633 211.425L246.263 211.425A65.756 65.756 0 0 1 149.257 211.425L144.887 211.425" fill="white" stroke="transparent"></path></g></svg></g><defs><mask></mask></defs><mask><g id="SvgjsG2244"><svg viewBox="0 0 395.52 247.2" height="247.2" width="395.52"><g><svg></svg></g><g><svg viewBox="0 0 395.52 247.2" height="247.2" width="395.52"><g transform="matrix(1,0,0,1,127.63387398708934,47.215199999999996)"><svg viewBox="0 0 140.2522520258213 152.7696" height="152.7696" width="140.2522520258213"><g><svg viewBox="0 0 245.65351679999992 267.57780326564784" height="152.7696" width="140.2522520258213"><g></g><g></g><g transform="matrix(1,0,0,1,0.6110783999999825,182.70123411356172)"><svg viewBox="0 0 244.43135999999996 84.87656915208612" height="84.87656915208612" width="244.43135999999996"><g id="SvgjsG2241"><svg viewBox="0 0 244.43135999999996 84.87656915208612" height="84.87656915208612" width="244.43135999999996" id="SvgjsSvg2240"><g><svg viewBox="0 0 244.43135999999996 84.87656915208612" height="84.87656915208612" width="244.43135999999996"><g transform="matrix(1,0,0,1,0,0)"><svg width="244.43135999999996" viewBox="-0.39000001549720764 -36.90999984741211 108.83000183105469 37.790000915527344" height="84.87656915208612" data-palette-color="url(#ff858294-1235-4c09-838b-ef5beaf325bb)"></svg></g></svg></g></svg></g></svg></g><g transform="matrix(1,0,0,1,77.44463576991757,0)"><svg viewBox="0 0 90.76424526016478 117.29941856818301" height="117.29941856818301" width="90.76424526016478"><g><svg xmlns="http://www.w3.org/2000/svg" xmlns:xlink="http://www.w3.org/1999/xlink" version="1.1" x="0" y="0" viewBox="12.982999801635742 1 75.68599700927734 97.81300354003906" enable-background="new 0 0 100 100" xml:space="preserve" height="117.29941856818301" width="90.76424526016478" class="icon-icon-0" data-fill-palette-color="accent" id="SvgjsSvg2238"></svg></g></svg></g><g></g></svg></g></svg></g><g></g></svg></g><defs><mask></mask></defs></svg></g></mask><mask><g id="SvgjsG2237"><svg viewBox="0 0 395.52 247.2" height="247.2" width="395.52"><g><svg></svg></g><g><svg viewBox="0 0 395.52 247.2" height="247.2" width="395.52"><g transform="matrix(1,0,0,1,127.63387398708934,47.215199999999996)"><svg viewBox="0 0 140.2522520258213 152.7696" height="152.7696" width="140.2522520258213"><g><svg viewBox="0 0 245.65351679999992 267.57780326564784" height="152.7696" width="140.2522520258213"><g></g><g></g><g transform="matrix(1,0,0,1,0.6110783999999825,182.70123411356172)"><svg viewBox="0 0 244.43135999999996 84.87656915208612" height="84.87656915208612" width="244.43135999999996"><g id="SvgjsG2236"><svg viewBox="0 0 244.43135999999996 84.87656915208612" height="84.87656915208612" width="244.43135999999996" id="SvgjsSvg2235"><g><svg viewBox="0 0 244.43135999999996 84.87656915208612" height="84.87656915208612" width="244.43135999999996"><g transform="matrix(1,0,0,1,0,0)"><svg width="244.43135999999996" viewBox="-0.39000001549720764 -36.90999984741211 108.83000183105469 37.790000915527344" height="84.87656915208612" data-palette-color="url(#ff858294-1235-4c09-838b-ef5beaf325bb)"></svg></g></svg></g></svg></g></svg></g><g transform="matrix(1,0,0,1,77.44463576991757,0)"><svg viewBox="0 0 90.76424526016478 117.29941856818301" height="117.29941856818301" width="90.76424526016478"><g><svg xmlns="http://www.w3.org/2000/svg" xmlns:xlink="http://www.w3.org/1999/xlink" version="1.1" x="0" y="0" viewBox="12.982999801635742 1 75.68599700927734 97.81300354003906" enable-background="new 0 0 100 100" xml:space="preserve" height="117.29941856818301" width="90.76424526016478" class="icon-icon-0" data-fill-palette-color="accent" id="SvgjsSvg2234"></svg></g></svg></g><g></g></svg></g></svg></g><g></g></svg></g><defs><mask></mask></defs><mask><g id="SvgjsG2233"><svg viewBox="0 0 395.52 247.2" height="247.2" width="395.52"><g><svg></svg></g><g><svg viewBox="0 0 395.52 247.2" height="247.2" width="395.52"><g transform="matrix(1,0,0,1,127.63387398708934,47.215199999999996)"><svg viewBox="0 0 140.2522520258213 152.7696" height="152.7696" width="140.2522520258213"><g><svg viewBox="0 0 245.65351679999992 267.57780326564784" height="152.7696" width="140.2522520258213"><g></g><g></g><g transform="matrix(1,0,0,1,0.6110783999999825,182.70123411356172)"><svg viewBox="0 0 244.43135999999996 84.87656915208612" height="84.87656915208612" width="244.43135999999996"><g id="SvgjsG2232"><svg viewBox="0 0 244.43135999999996 84.87656915208612" height="84.87656915208612" width="244.43135999999996" id="SvgjsSvg2231"><g><svg viewBox="0 0 244.43135999999996 84.87656915208612" height="84.87656915208612" width="244.43135999999996"><g transform="matrix(1,0,0,1,0,0)"><svg width="244.43135999999996" viewBox="-0.39000001549720764 -36.90999984741211 108.83000183105469 37.790000915527344" height="84.87656915208612" data-palette-color="url(#ff858294-1235-4c09-838b-ef5beaf325bb)"></svg></g></svg></g></svg></g></svg></g><g transform="matrix(1,0,0,1,77.44463576991757,0)"><svg viewBox="0 0 90.76424526016478 117.29941856818301" height="117.29941856818301" width="90.76424526016478"><g><svg xmlns="http://www.w3.org/2000/svg" xmlns:xlink="http://www.w3.org/1999/xlink" version="1.1" x="0" y="0" viewBox="12.982999801635742 1 75.68599700927734 97.81300354003906" enable-background="new 0 0 100 100" xml:space="preserve" height="117.29941856818301" width="90.76424526016478" class="icon-icon-0" data-fill-palette-color="accent" id="SvgjsSvg2230"></svg></g></svg></g><g></g></svg></g></svg></g><g></g></svg></g><defs><mask></mask></defs></svg></g></mask></svg></g></mask></svg></g></mask><linearGradient x1="0.054" x2="0.941" y1="0.5" y2="0.5" id="cc743b33-009d-41ae-9226-70168bd9d3a4"><stop stop-color="#0f3054" offset="0"></stop><stop stop-color="#3b8dcb" offset="0.498"></stop><stop stop-color="#0f3054" offset="1"></stop></linearGradient></svg><rect width="395.52" height="247.2" fill="none" stroke="none" visibility="hidden"></rect></g></svg></g></svg>